<svg width="30" height="30" viewBox="0 0 30 30" fill="none" xmlns="http://www.w3.org/2000/svg">
<path d="M14.9998 26.1102L24.6215 20.5547H24.6215V9.44472L14.9998 3.8898L5.37817 9.44472V20.5547L14.9998 26.1102ZM7.55124 20.3032C7.00843 20.0868 6.56751 19.4641 6.56751 18.9119C6.56909 18.3597 7.00843 18.0875 7.55124 18.3022C8.09411 18.5186 8.53503 19.1413 8.53503 19.6952C8.53503 20.2457 8.09411 20.5196 7.55124 20.3032ZM6.54138 16.0589C6.54138 15.5067 6.98071 15.2345 7.52517 15.4493C8.06634 15.6657 8.50731 16.2884 8.50731 16.8405C8.50731 17.3932 8.0664 17.6654 7.52353 17.4502C6.98071 17.2338 6.54138 16.6099 6.54138 16.0589ZM7.55124 14.5228C7.00843 14.3064 6.56909 13.6841 6.56909 13.1315C6.56909 12.5793 7.00843 12.3071 7.55282 12.5235C8.09569 12.7386 8.53503 13.3625 8.53503 13.9131C8.53503 14.4674 8.09411 14.7396 7.55124 14.5228ZM12.7404 23.2828C12.1975 23.0664 11.7566 22.4436 11.7566 21.8914C11.7582 21.3392 12.1975 21.067 12.7404 21.2818C13.2832 21.4982 13.7241 22.1208 13.7241 22.6747C13.7242 23.2253 13.2832 23.4991 12.7404 23.2828ZM11.7305 19.0385C11.7305 18.4863 12.1698 18.2141 12.7142 18.4288C13.2554 18.6452 13.6964 19.268 13.6964 19.8202C13.6964 20.3728 13.2555 20.645 12.7126 20.4298C12.1698 20.2134 11.7305 19.5895 11.7305 19.0385ZM12.7404 17.5024C12.1975 17.286 11.7582 16.6637 11.7582 16.1111C11.7582 15.5589 12.1975 15.2867 12.7419 15.503C13.2848 15.7182 13.7241 16.3421 13.7241 16.8928C13.7242 17.447 13.2832 17.7192 12.7404 17.5024ZM10.9404 9.02179C11.1941 8.61375 12.0064 8.32799 12.7572 8.385C13.5059 8.43996 13.9074 8.81718 13.654 9.22482C13.399 9.63451 12.5867 9.92027 11.8376 9.86326C11.0868 9.80666 10.6854 9.42943 10.9404 9.02179ZM16.304 9.42486C16.5573 9.01517 17.3713 8.73105 18.1204 8.78595C18.8696 8.84297 19.2726 9.21978 19.0172 9.62783C18.7639 10.0371 17.9499 10.3216 17.2008 10.2663C16.4504 10.2093 16.049 9.8325 16.304 9.42486ZM20.9933 18.3754C20.5426 18.9358 19.9028 19.0503 19.5654 18.6346C19.2247 18.2177 19.3152 17.4267 19.7659 16.868C20.2162 16.3077 20.8564 16.1927 21.1955 16.6101C21.5345 17.0253 21.4437 17.8167 20.9933 18.3754Z" fill="#FFAC2F"/>
</svg>
