<svg width="22" height="22" viewBox="0 0 22 22" fill="none" xmlns="http://www.w3.org/2000/svg">
<g clip-path="url(#clip0)">
<path d="M10.9802 0C4.90502 0 -0.0197754 4.92479 -0.0197754 11C-0.0197754 17.0752 4.90502 22 10.9802 22C17.0554 22 21.9802 17.0752 21.9802 11C21.9802 4.92479 17.0554 0 10.9802 0ZM11.3038 16.7567C11.0971 16.9794 10.8038 17.0908 10.422 17.0908C10.0406 17.0908 9.74777 16.9822 9.54381 16.7645C9.33985 16.5468 9.23764 16.242 9.23764 15.8501C9.23764 15.0388 9.63227 14.6337 10.422 14.6337C10.8088 14.6337 11.104 14.7395 11.3084 14.9518C11.5128 15.164 11.6146 15.4633 11.6146 15.8501C11.6146 16.2314 11.5105 16.5335 11.3038 16.7567ZM14.1766 8.89304C14.0584 9.20746 13.8796 9.50675 13.6404 9.79138C13.4011 10.076 12.9896 10.4468 12.4043 10.9033C11.9047 11.2952 11.5701 11.6201 11.401 11.8782C11.258 12.0959 11.1796 12.3805 11.1576 12.7247C11.1562 12.732 11.1539 12.7343 11.1526 12.7417C11.0563 13.2839 10.4266 13.2802 10.4266 13.2802H10.0956C10.0956 13.2802 9.54793 13.194 9.56856 12.7646C9.56856 12.1738 9.67581 11.6825 9.89077 11.2901C10.1057 10.8978 10.482 10.4926 11.0187 10.0737C11.6581 9.56863 12.0697 9.17675 12.2549 8.89762C12.44 8.6185 12.5331 8.28529 12.5331 7.89846C12.5331 7.44746 12.3827 7.10096 12.0821 6.85896C11.7814 6.61696 11.3487 6.49642 10.785 6.49642C10.2744 6.49642 9.80185 6.56883 9.36689 6.71413C9.12947 6.79342 8.89618 6.88325 8.66472 6.97996C8.65968 6.98179 8.65785 6.98088 8.65235 6.98317C8.11793 7.18988 7.86997 6.76958 7.86997 6.76958L7.66006 6.33004C7.65914 6.32729 7.42356 5.79058 7.94881 5.55454C8.88518 5.12646 9.87564 4.91013 10.9216 4.91013C11.9739 4.91013 12.8094 5.16817 13.4268 5.68379C14.0442 6.19942 14.3531 6.91121 14.3531 7.81871C14.3536 8.22067 14.2944 8.57908 14.1766 8.89304Z" fill="#FFAC2F"/>
</g>
<defs>
<clipPath id="clip0">
<rect width="22" height="22" fill="white"/>
</clipPath>
</defs>
</svg>
