<svg width="30" height="30" viewBox="0 0 30 30" fill="none" xmlns="http://www.w3.org/2000/svg">
<path d="M24.873 12.6855H23.9824C23.2559 12.6855 22.6465 12.0586 22.6465 11.3145C22.6465 10.9395 22.8047 10.5996 23.0859 10.3477L23.6602 9.78516C24.2285 9.22266 24.2285 8.30273 23.6602 7.74023L22.3535 6.44531C22.0957 6.1875 21.7148 6.03516 21.3281 6.03516C20.9414 6.03516 20.5664 6.1875 20.3027 6.44531L19.752 6.99609C19.4883 7.28906 19.1367 7.44727 18.7559 7.44727C18.0059 7.44727 17.3789 6.83789 17.3789 6.11719V5.2207C17.3789 4.42969 16.7402 3.75 15.9434 3.75H14.1621C13.3652 3.75 12.7324 4.42383 12.7324 5.2207V6.11133C12.7324 6.83203 12.1055 7.44141 11.3555 7.44141C10.9805 7.44141 10.6348 7.2832 10.3828 7.00781L9.81445 6.44531C9.55664 6.18164 9.17578 6.03516 8.78906 6.03516C8.40234 6.03516 8.02734 6.1875 7.76367 6.44531L6.44531 7.73438C5.88281 8.29688 5.88281 9.2168 6.44531 9.77344L6.99609 10.3242C7.28906 10.5879 7.45312 10.9395 7.45312 11.3145C7.45312 12.0645 6.84375 12.6855 6.11719 12.6855H5.22656C4.42383 12.6855 3.75 13.3125 3.75 14.1094V15V15.8906C3.75 16.6816 4.42383 17.3145 5.22656 17.3145H6.11719C6.84375 17.3145 7.45312 17.9414 7.45312 18.6855C7.45312 19.0605 7.28906 19.4121 6.99609 19.6758L6.44531 20.2207C5.88281 20.7832 5.88281 21.7031 6.44531 22.2598L7.75195 23.5605C8.00977 23.8242 8.39062 23.9707 8.77734 23.9707C9.16406 23.9707 9.53906 23.8184 9.80273 23.5605L10.3711 22.998C10.6172 22.7227 10.9688 22.5645 11.3438 22.5645C12.0938 22.5645 12.7207 23.1738 12.7207 23.8945V24.7852C12.7207 25.5762 13.3535 26.2559 14.1562 26.2559H15.9375C16.7344 26.2559 17.3672 25.582 17.3672 24.7852V23.8945C17.3672 23.1738 17.9941 22.5645 18.7441 22.5645C19.1191 22.5645 19.4707 22.7285 19.7402 23.0156L20.291 23.5664C20.5547 23.8242 20.9297 23.9766 21.3164 23.9766C21.7031 23.9766 22.0781 23.8242 22.3418 23.5664L23.6484 22.2656C24.2109 21.7031 24.2109 20.7832 23.6484 20.2207L23.0742 19.6582C22.793 19.4062 22.6348 19.0605 22.6348 18.6914C22.6348 17.9414 23.2441 17.3203 23.9707 17.3203H24.8613C25.6582 17.3203 26.2266 16.6934 26.2266 15.8965V15V14.1094C26.2383 13.3125 25.6699 12.6855 24.873 12.6855ZM19.7344 15C19.7344 17.584 17.6426 19.6875 15.0469 19.6875C12.4512 19.6875 10.3594 17.584 10.3594 15C10.3594 12.416 12.4512 10.3125 15.0469 10.3125C17.6426 10.3125 19.7344 12.416 19.7344 15Z" fill="#FFAC2F"/>
</svg>
